{"title":"Housefull 2010 720p BluRay HD - I Dont Know What To Do mkv -","uid":7843102,"size":58336413,"categoryP":"video","categoryS":"music_videos","magnet":"?xt=urn:btih:6f15cdfbba7084df279ad95dae1ec58bf4f7cdc5&amp;dn=Housefull+2010+720p+BluRay+HD+-+I+Dont+Know+What+To+Do+mkv+-+&amp;tr=udp%3A%2F%2Ftracker.openbittorrent.com%3A80&amp;tr=udp%3A%2F%2Fopen.demonii.com%3A1337&amp;tr=udp%3A%2F%2Ftracker.coppersurfer.tk%3A6969&amp;tr=udp%3A%2F%2Fexodus.desync.com%3A6969","seeders":1,"leechers":0,"uploader":"drabhi90","files":1,"time":1353399470,"description":"Unique ID : 211709425711061246045417810980584073970 (0x9F45C0935D2D591E9168AB25D84CAAF2)\nComplete name : F:VideosHousefull 2010 720p BluRay nHD x264 NhaNc3-I Dont Know What To Do.mkv\nFormat : Matroska\nFormat version : Version 2\nFile size : 55.6 MiB\nDuration : 3mn 16s\nOverall bit rate : 2 378 Kbps\nEncoded date : UTC 2011-02-03 11:49:21\nWriting application : mkvmerge v4.4.0 ('Die Wiederkehr') built on Oct 31 2010 21:52:48\nWriting library : libebml v1.0.0 + libmatroska v1.0.0\nVideo\nID : 1\nFormat : AVC\nFormat/Info : Advanced Video Codec\nFormat profile : &lt;a class=&quot;__cf_email__&quot; href=&quot;/cdn-cgi/l/email-protection&quot; data-cfemail=&quot;ca82a3ada28a86fee4fb&quot;&gt;[email&amp;#160;protected]&lt;/a&gt;&lt;script cf-hash='f9e31' type=&quot;text/javascript&quot;&gt;\n/* &lt;![CDATA[ */!function(){try{var t=&quot;currentScript&quot;in document?document.currentScript:function(){for(var t=document.getElementsByTagName(&quot;script&quot;),e=t.length;e--;)if(t[e].getAttribute(&quot;cf-hash&quot;))return t[e]}();if(t&amp;&amp;t.previousSibling){var e,r,n,i,c=t.previousSibling,a=c.getAttribute(&quot;data-cfemail&quot;);if(a){for(e=&quot;&quot;,r=parseInt(a.substr(0,2),16),n=2;a.length-n;n+=2)i=parseInt(a.substr(n,2),16)^r,e+=String.fromCharCode(i);e=document.createTextNode(e),c.parentNode.replaceChild(e,c)}}}catch(u){}}();/* ]]&gt; */&lt;/script&gt;\nFormat settings, CABAC : Yes\nFormat settings, ReFrames : 7 frames\nMuxing mode : Header stripping\nCodec ID : V_MPEG4/ISO/AVC\nDuration : 3mn 16s\nBit rate : 2 010 Kbps\nWidth : 1 280 pixels\nHeight : 544 pixels\nDisplay aspect ratio : 2.35:1\nFrame rate mode : Constant\nFrame rate : 23.976 fps\nColor space : YUV\nChroma subsampling : 4:2:0\nBit depth : 8 bits\nScan type : Progressive\nBits/(Pixel*Frame) : 0.120\nStream size : 47.0 MiB (85%)\nLanguage : English\nDefault : Yes\nForced : No\nAudio\nID : 2\nFormat : AC-3\nFormat/Info : Audio Coding 3\nMode extension : CM (complete main)\nFormat settings, Endianness : Big\nMuxing mode : Header stripping\nCodec ID : A_AC3\nDuration : 3mn 16s\nBit rate mode : Constant\nBit rate : 320 Kbps\nChannel(s) : 6 channels\nChannel positions : Front: L C R, Side: L R, LFE\nSampling rate : 48.0 KHz\nBit depth : 16 bits\nCompression mode : Lossy\nStream size : 7.49 MiB (13%)\nLanguage : Hindi\nDefault : Yes\nForced : No\nText\nID : 3\nFormat : ASS\nCodec ID : S_TEXT/ASS\nCodec ID/Info : Advanced Sub Station Alpha\nCompression mode : Lossless\nLanguage : English\nDefault : Yes\nForced : No","torrent":{"xt":"urn:btih:6f15cdfbba7084df279ad95dae1ec58bf4f7cdc5","amp;dn":"Housefull+2010+720p+BluRay+HD+-+I+Dont+Know+What+To+Do+mkv+-+","amp;tr":["udp%3A%2F%2Ftracker.openbittorrent.com%3A80","udp%3A%2F%2Fopen.demonii.com%3A1337","udp%3A%2F%2Ftracker.coppersurfer.tk%3A6969","udp%3A%2F%2Fexodus.desync.com%3A6969"],"infoHash":"6f15cdfbba7084df279ad95dae1ec58bf4f7cdc5","infoHashBuffer":{"type":"Buffer","data":[111,21,205,251,186,112,132,223,39,154,217,93,174,30,197,139,244,247,205,197]},"announce":[],"urlList":[]}}